<?xml version="1.0" encoding="utf-8"?>

<!DOCTYPE svg PUBLIC "-//W3C//DTD SVG 1.1//EN" "http://www.w3.org/Graphics/SVG/1.1/DTD/svg11.dtd">
<svg version="1.1" xmlns="http://www.w3.org/2000/svg" xmlns:xlink="http://www.w3.org/1999/xlink" x="0px" y="0px" viewBox="0 0 1000 1000" enable-background="new 0 0 1000 1000" xml:space="preserve" style="fill:#fff">
<g><g transform="translate(0.000000,511.000000) scale(0.100000,-0.100000)"><path d="M2768.9,4045.4l-59.7-50.1V2328c1.9-1765.5-1.9-1703.8,90.5-1752c30.8-17.3,897.2-23.1,3452-23.1h3411.6l55.8,55.8l55.8,55.8v1659.6v1659.6l-55.8,55.8l-55.8,55.8H6245.9H2828.5L2768.9,4045.4z M8777.6,3654.5c26.9-267.6,283-523.7,560.2-558.3l100.1-11.6v-760.5v-760.5l-100.1-13.5c-286.9-42.3-527.5-283-562.2-564.1l-11.5-96.3H6242H3719.9l-13.5,90.5c-40.4,288.8-277.2,529.4-558.3,569.9l-102,13.5v760.5v760.5l104,13.5c146.3,21.2,319.6,119.4,408.2,231c78.9,102,152.1,273.4,152.1,361.9v57.8h2529.8H8768L8777.6,3654.5z"/><path d="M6101.5,3556.3c-346.5-73.2-650.8-417.8-756.6-856.7c-52-225.3-53.9-523.7,0-748.9c113.6-473.6,413.9-797.1,799-864.4c319.6-53.9,675.8,161.7,864.4,521.7c127.1,244.5,157.9,379.3,157.9,716.2c0,335-30.8,471.7-155.9,714.3C6811.9,3415.8,6442.3,3627.6,6101.5,3556.3z M6367.2,3155.9c9.6-100.1,11.5-104,82.8-129c119.3-40.4,221.4-119.4,263.7-202.2l40.4-77l-52-19.3c-27-11.6-86.6-28.9-132.9-40.4c-75.1-19.3-88.6-17.3-140.5,21.2c-161.7,119.4-458.2,30.8-419.7-125.1c17.3-65.5,92.4-98.2,259.9-113.6c310-27,502.5-196.4,502.5-442.8c0-175.2-134.8-354.2-302.3-402.4l-92.4-27l-9.6-104l-9.6-104H6242h-115.5l-9.6,104c-9.6,104-9.6,104-92.4,127.1c-44.3,13.5-111.7,48.1-146.3,75.1c-73.2,55.8-154,175.2-138.6,202.2c5.8,9.6,67.4,32.7,136.7,50.1c125.1,34.6,127.1,34.6,171.4-7.7c92.4-86.6,344.6-69.3,410.1,28.9c25,38.5,25,55.8,5.8,102c-27,67.4-82.8,90.5-248.4,105.9c-175.2,15.4-259.9,46.2-350.4,125.1c-258,219.5-169.4,625.7,155.9,722c84.7,25,86.6,27,92.4,109.7c7.7,132.8,9.6,134.8,132.9,129l111.6-5.8L6367.2,3155.9z"/><path d="M4145.4,2701.5c-213.7-78.9-319.6-336.9-225.3-541c121.3-263.8,450.5-321.5,650.7-113.6c181,186.7,148.2,471.7-69.3,616.1C4409.2,2722.7,4253.2,2740,4145.4,2701.5z"/><path d="M8053.7,2699.6c-281.1-100.1-350.4-477.5-121.3-677.7c90.5-78.9,188.7-109.7,306.1-96.3c121.3,15.4,200.2,61.6,279.2,163.6C8754.5,2401.2,8427.2,2832.4,8053.7,2699.6z"/><path d="M2792-180.6c-163.6-19.2-400.4-94.3-527.5-167.5c-204.1-119.4-2154.4-1478.6-2164-1511.3c-9.6-23.1,130.9-240.7,481.3-750.9c273.4-392.8,508.3-725.8,525.6-739.3c36.6-30.8,38.5-30.8,452.4,258c198.3,138.6,383.1,254.1,442.8,273.4c140.6,48.1,294.6,63.5,412,42.3c53.9-11.5,747-258,1540.2-550.6c864.4-319.6,1478.6-537.2,1538.3-542.9c209.8-23.1,161.7-52,2264.1,1401.6c1072.4,743.2,1969.5,1366.9,1990.7,1388.1c23.1,19.2,65.5,80.9,96.3,136.7c48.1,86.6,55.8,121.3,55.8,244.5c-1.9,231-107.8,394.7-315.8,487.1c-98.2,42.4-265.7,50.1-371.6,15.4c-38.5-13.5-614.2-400.4-1280.3-860.6l-1209.1-837.5l5.8-129c13.5-256.1-71.3-464-258-639.2c-169.4-155.9-285-200.2-541-202.1h-196.4l-1016.5,510.2c-887.5,444.7-1018.5,516-1033.9,564.1c-23.1,65.5,34.6,156,109.7,163.6c34.7,3.9,342.7-140.5,1018.5-481.3c958.8-481.3,970.3-487.1,1105.1-492.9c211.8-11.6,375.4,77,485.2,263.8c46.2,77,52,107.8,52,252.2c0,142.5-5.8,175.2-52,250.3c-27,48.1-75.1,109.7-105.9,138.6c-28.9,28.9-673.8,363.9-1432.4,745.1C3404.2-215.2,3354.1-192.1,3055.7-172.9C2986.4-169,2867.1-172.9,2792-180.6z" style="fill:#fff"/></g></g>
</svg>
